<mxfile host="app.diagrams.net" modified="2023-05-04T09:08:21.260Z" agent="Mozilla/5.0 (Windows NT 10.0; Win64; x64) AppleWebKit/537.36 (KHTML, like Gecko) Chrome/113.0.0.0 Safari/537.36" etag="klXOWiMEH-DaLZTArzcP" version="21.2.7" type="device">
  <diagram id="R2lEEEUBdFMjLlhIrx00" name="Page-1">
    <mxGraphModel dx="1059" dy="627" grid="1" gridSize="10" guides="1" tooltips="1" connect="1" arrows="1" fold="1" page="1" pageScale="1" pageWidth="850" pageHeight="1100" math="0" shadow="0" extFonts="Permanent Marker^https://fonts.googleapis.com/css?family=Permanent+Marker">
      <root>
        <mxCell id="0" />
        <mxCell id="1" parent="0" />
        <mxCell id="qd9NMynXkZUl9tCBYxDR-6" value="Zoo" style="rounded=0;whiteSpace=wrap;html=1;" vertex="1" parent="1">
          <mxGeometry x="130" y="210" width="120" height="60" as="geometry" />
        </mxCell>
        <mxCell id="qd9NMynXkZUl9tCBYxDR-7" value="Animal" style="rounded=0;whiteSpace=wrap;html=1;" vertex="1" parent="1">
          <mxGeometry x="590" y="210" width="120" height="60" as="geometry" />
        </mxCell>
        <mxCell id="qd9NMynXkZUl9tCBYxDR-8" value="tiene" style="rhombus;whiteSpace=wrap;html=1;" vertex="1" parent="1">
          <mxGeometry x="360" y="205" width="120" height="70" as="geometry" />
        </mxCell>
        <mxCell id="qd9NMynXkZUl9tCBYxDR-14" value="" style="endArrow=none;html=1;rounded=0;" edge="1" parent="1">
          <mxGeometry width="50" height="50" relative="1" as="geometry">
            <mxPoint x="250" y="240" as="sourcePoint" />
            <mxPoint x="360" y="239.5" as="targetPoint" />
          </mxGeometry>
        </mxCell>
        <mxCell id="qd9NMynXkZUl9tCBYxDR-15" value="" style="endArrow=none;html=1;rounded=0;" edge="1" parent="1">
          <mxGeometry width="50" height="50" relative="1" as="geometry">
            <mxPoint x="480" y="239.5" as="sourcePoint" />
            <mxPoint x="590" y="240" as="targetPoint" />
          </mxGeometry>
        </mxCell>
        <mxCell id="qd9NMynXkZUl9tCBYxDR-17" value="(1,1)" style="text;html=1;strokeColor=none;fillColor=none;align=center;verticalAlign=middle;whiteSpace=wrap;rounded=0;" vertex="1" parent="1">
          <mxGeometry x="250" y="210" width="60" height="30" as="geometry" />
        </mxCell>
        <mxCell id="qd9NMynXkZUl9tCBYxDR-18" value="(1,N)" style="text;html=1;strokeColor=none;fillColor=none;align=center;verticalAlign=middle;whiteSpace=wrap;rounded=0;" vertex="1" parent="1">
          <mxGeometry x="530" y="210" width="60" height="30" as="geometry" />
        </mxCell>
        <mxCell id="qd9NMynXkZUl9tCBYxDR-19" value="pertenece a" style="rhombus;whiteSpace=wrap;html=1;" vertex="1" parent="1">
          <mxGeometry x="590" y="330" width="120" height="70" as="geometry" />
        </mxCell>
        <mxCell id="qd9NMynXkZUl9tCBYxDR-20" value="" style="endArrow=none;html=1;rounded=0;entryX=0.5;entryY=0;entryDx=0;entryDy=0;" edge="1" parent="1" target="qd9NMynXkZUl9tCBYxDR-19">
          <mxGeometry width="50" height="50" relative="1" as="geometry">
            <mxPoint x="649.5" y="270" as="sourcePoint" />
            <mxPoint x="649.5" y="320" as="targetPoint" />
          </mxGeometry>
        </mxCell>
        <mxCell id="qd9NMynXkZUl9tCBYxDR-21" value="" style="endArrow=none;html=1;rounded=0;entryX=0.5;entryY=0;entryDx=0;entryDy=0;" edge="1" parent="1">
          <mxGeometry width="50" height="50" relative="1" as="geometry">
            <mxPoint x="649.5" y="400" as="sourcePoint" />
            <mxPoint x="650" y="460" as="targetPoint" />
          </mxGeometry>
        </mxCell>
        <mxCell id="qd9NMynXkZUl9tCBYxDR-23" value="Especie" style="rounded=0;whiteSpace=wrap;html=1;" vertex="1" parent="1">
          <mxGeometry x="590" y="460" width="120" height="60" as="geometry" />
        </mxCell>
        <mxCell id="qd9NMynXkZUl9tCBYxDR-24" value="(1,N)" style="text;html=1;strokeColor=none;fillColor=none;align=center;verticalAlign=middle;whiteSpace=wrap;rounded=0;" vertex="1" parent="1">
          <mxGeometry x="650" y="270" width="60" height="30" as="geometry" />
        </mxCell>
        <mxCell id="qd9NMynXkZUl9tCBYxDR-25" value="(1,1)" style="text;html=1;strokeColor=none;fillColor=none;align=center;verticalAlign=middle;whiteSpace=wrap;rounded=0;" vertex="1" parent="1">
          <mxGeometry x="650" y="430" width="60" height="30" as="geometry" />
        </mxCell>
        <mxCell id="qd9NMynXkZUl9tCBYxDR-26" value="1,N" style="text;html=1;strokeColor=none;fillColor=none;align=center;verticalAlign=middle;whiteSpace=wrap;rounded=0;" vertex="1" parent="1">
          <mxGeometry x="390" y="175" width="60" height="30" as="geometry" />
        </mxCell>
        <mxCell id="qd9NMynXkZUl9tCBYxDR-27" value="1,N" style="text;html=1;strokeColor=none;fillColor=none;align=center;verticalAlign=middle;whiteSpace=wrap;rounded=0;" vertex="1" parent="1">
          <mxGeometry x="710" y="350" width="60" height="30" as="geometry" />
        </mxCell>
        <mxCell id="qd9NMynXkZUl9tCBYxDR-52" style="edgeStyle=orthogonalEdgeStyle;rounded=0;orthogonalLoop=1;jettySize=auto;html=1;entryX=0;entryY=0.75;entryDx=0;entryDy=0;" edge="1" parent="1" source="qd9NMynXkZUl9tCBYxDR-28" target="qd9NMynXkZUl9tCBYxDR-6">
          <mxGeometry relative="1" as="geometry" />
        </mxCell>
        <mxCell id="qd9NMynXkZUl9tCBYxDR-28" value="nombre" style="text;html=1;strokeColor=none;fillColor=none;align=center;verticalAlign=middle;whiteSpace=wrap;rounded=0;" vertex="1" parent="1">
          <mxGeometry x="20" y="175" width="60" height="30" as="geometry" />
        </mxCell>
        <mxCell id="qd9NMynXkZUl9tCBYxDR-53" style="edgeStyle=orthogonalEdgeStyle;rounded=0;orthogonalLoop=1;jettySize=auto;html=1;" edge="1" parent="1" source="qd9NMynXkZUl9tCBYxDR-29" target="qd9NMynXkZUl9tCBYxDR-6">
          <mxGeometry relative="1" as="geometry" />
        </mxCell>
        <mxCell id="qd9NMynXkZUl9tCBYxDR-29" value="ciudad" style="text;html=1;strokeColor=none;fillColor=none;align=center;verticalAlign=middle;whiteSpace=wrap;rounded=0;" vertex="1" parent="1">
          <mxGeometry x="80" y="140" width="60" height="30" as="geometry" />
        </mxCell>
        <mxCell id="qd9NMynXkZUl9tCBYxDR-54" style="edgeStyle=orthogonalEdgeStyle;rounded=0;orthogonalLoop=1;jettySize=auto;html=1;entryX=0.589;entryY=0.044;entryDx=0;entryDy=0;entryPerimeter=0;" edge="1" parent="1" source="qd9NMynXkZUl9tCBYxDR-30" target="qd9NMynXkZUl9tCBYxDR-6">
          <mxGeometry relative="1" as="geometry" />
        </mxCell>
        <mxCell id="qd9NMynXkZUl9tCBYxDR-30" value="país" style="text;html=1;strokeColor=none;fillColor=none;align=center;verticalAlign=middle;whiteSpace=wrap;rounded=0;" vertex="1" parent="1">
          <mxGeometry x="130" y="120" width="60" height="30" as="geometry" />
        </mxCell>
        <mxCell id="qd9NMynXkZUl9tCBYxDR-55" style="edgeStyle=orthogonalEdgeStyle;rounded=0;orthogonalLoop=1;jettySize=auto;html=1;entryX=0.672;entryY=0.022;entryDx=0;entryDy=0;entryPerimeter=0;" edge="1" parent="1" source="qd9NMynXkZUl9tCBYxDR-31" target="qd9NMynXkZUl9tCBYxDR-6">
          <mxGeometry relative="1" as="geometry" />
        </mxCell>
        <mxCell id="qd9NMynXkZUl9tCBYxDR-31" value="tamaño" style="text;html=1;strokeColor=none;fillColor=none;align=center;verticalAlign=middle;whiteSpace=wrap;rounded=0;" vertex="1" parent="1">
          <mxGeometry x="180" y="140" width="60" height="30" as="geometry" />
        </mxCell>
        <mxCell id="qd9NMynXkZUl9tCBYxDR-56" style="edgeStyle=orthogonalEdgeStyle;rounded=0;orthogonalLoop=1;jettySize=auto;html=1;entryX=0.75;entryY=0;entryDx=0;entryDy=0;" edge="1" parent="1" source="qd9NMynXkZUl9tCBYxDR-32" target="qd9NMynXkZUl9tCBYxDR-6">
          <mxGeometry relative="1" as="geometry" />
        </mxCell>
        <mxCell id="qd9NMynXkZUl9tCBYxDR-32" value="presupuesto" style="text;html=1;strokeColor=none;fillColor=none;align=center;verticalAlign=middle;whiteSpace=wrap;rounded=0;" vertex="1" parent="1">
          <mxGeometry x="240" y="145" width="70" height="30" as="geometry" />
        </mxCell>
        <mxCell id="qd9NMynXkZUl9tCBYxDR-72" style="edgeStyle=orthogonalEdgeStyle;rounded=0;orthogonalLoop=1;jettySize=auto;html=1;entryX=0.147;entryY=0.002;entryDx=0;entryDy=0;entryPerimeter=0;" edge="1" parent="1" source="qd9NMynXkZUl9tCBYxDR-33" target="qd9NMynXkZUl9tCBYxDR-23">
          <mxGeometry relative="1" as="geometry" />
        </mxCell>
        <mxCell id="qd9NMynXkZUl9tCBYxDR-33" value="&lt;u&gt;id_especie&lt;/u&gt;" style="text;html=1;strokeColor=none;fillColor=none;align=center;verticalAlign=middle;whiteSpace=wrap;rounded=0;" vertex="1" parent="1">
          <mxGeometry x="445" y="410" width="60" height="30" as="geometry" />
        </mxCell>
        <mxCell id="qd9NMynXkZUl9tCBYxDR-57" style="edgeStyle=orthogonalEdgeStyle;rounded=0;orthogonalLoop=1;jettySize=auto;html=1;entryX=0.061;entryY=-0.022;entryDx=0;entryDy=0;entryPerimeter=0;" edge="1" parent="1" source="qd9NMynXkZUl9tCBYxDR-34" target="qd9NMynXkZUl9tCBYxDR-7">
          <mxGeometry relative="1" as="geometry" />
        </mxCell>
        <mxCell id="qd9NMynXkZUl9tCBYxDR-34" value="&lt;b&gt;&lt;u&gt;identificación&lt;/u&gt;&lt;/b&gt;" style="text;html=1;strokeColor=none;fillColor=none;align=center;verticalAlign=middle;whiteSpace=wrap;rounded=0;" vertex="1" parent="1">
          <mxGeometry x="470" y="180" width="80" height="30" as="geometry" />
        </mxCell>
        <mxCell id="qd9NMynXkZUl9tCBYxDR-58" style="edgeStyle=orthogonalEdgeStyle;rounded=0;orthogonalLoop=1;jettySize=auto;html=1;" edge="1" parent="1" source="qd9NMynXkZUl9tCBYxDR-35" target="qd9NMynXkZUl9tCBYxDR-7">
          <mxGeometry relative="1" as="geometry" />
        </mxCell>
        <mxCell id="qd9NMynXkZUl9tCBYxDR-35" value="tamaño" style="text;html=1;strokeColor=none;fillColor=none;align=center;verticalAlign=middle;whiteSpace=wrap;rounded=0;" vertex="1" parent="1">
          <mxGeometry x="480" y="160" width="60" height="30" as="geometry" />
        </mxCell>
        <mxCell id="qd9NMynXkZUl9tCBYxDR-59" style="edgeStyle=orthogonalEdgeStyle;rounded=0;orthogonalLoop=1;jettySize=auto;html=1;entryX=0.617;entryY=0.022;entryDx=0;entryDy=0;entryPerimeter=0;" edge="1" parent="1" source="qd9NMynXkZUl9tCBYxDR-36" target="qd9NMynXkZUl9tCBYxDR-7">
          <mxGeometry relative="1" as="geometry" />
        </mxCell>
        <mxCell id="qd9NMynXkZUl9tCBYxDR-36" value="especie" style="text;html=1;strokeColor=none;fillColor=none;align=center;verticalAlign=middle;whiteSpace=wrap;rounded=0;" vertex="1" parent="1">
          <mxGeometry x="590" y="100" width="60" height="30" as="geometry" />
        </mxCell>
        <mxCell id="qd9NMynXkZUl9tCBYxDR-60" style="edgeStyle=orthogonalEdgeStyle;rounded=0;orthogonalLoop=1;jettySize=auto;html=1;entryX=0.75;entryY=0;entryDx=0;entryDy=0;" edge="1" parent="1" source="qd9NMynXkZUl9tCBYxDR-37" target="qd9NMynXkZUl9tCBYxDR-7">
          <mxGeometry relative="1" as="geometry" />
        </mxCell>
        <mxCell id="qd9NMynXkZUl9tCBYxDR-37" value="sexo" style="text;html=1;align=center;verticalAlign=middle;resizable=0;points=[];autosize=1;strokeColor=none;fillColor=none;" vertex="1" parent="1">
          <mxGeometry x="670" y="145" width="50" height="30" as="geometry" />
        </mxCell>
        <mxCell id="qd9NMynXkZUl9tCBYxDR-62" style="edgeStyle=orthogonalEdgeStyle;rounded=0;orthogonalLoop=1;jettySize=auto;html=1;entryX=1;entryY=0.25;entryDx=0;entryDy=0;" edge="1" parent="1" source="qd9NMynXkZUl9tCBYxDR-38" target="qd9NMynXkZUl9tCBYxDR-7">
          <mxGeometry relative="1" as="geometry" />
        </mxCell>
        <mxCell id="qd9NMynXkZUl9tCBYxDR-38" value="año" style="text;html=1;align=center;verticalAlign=middle;resizable=0;points=[];autosize=1;strokeColor=none;fillColor=none;" vertex="1" parent="1">
          <mxGeometry x="710" y="145" width="40" height="30" as="geometry" />
        </mxCell>
        <mxCell id="qd9NMynXkZUl9tCBYxDR-63" style="edgeStyle=orthogonalEdgeStyle;rounded=0;orthogonalLoop=1;jettySize=auto;html=1;entryX=1;entryY=0.75;entryDx=0;entryDy=0;" edge="1" parent="1" source="qd9NMynXkZUl9tCBYxDR-39" target="qd9NMynXkZUl9tCBYxDR-7">
          <mxGeometry relative="1" as="geometry" />
        </mxCell>
        <mxCell id="qd9NMynXkZUl9tCBYxDR-39" value="país" style="text;html=1;align=center;verticalAlign=middle;resizable=0;points=[];autosize=1;strokeColor=none;fillColor=none;" vertex="1" parent="1">
          <mxGeometry x="760" y="190" width="50" height="30" as="geometry" />
        </mxCell>
        <mxCell id="qd9NMynXkZUl9tCBYxDR-64" style="edgeStyle=orthogonalEdgeStyle;rounded=0;orthogonalLoop=1;jettySize=auto;html=1;entryX=1;entryY=0.75;entryDx=0;entryDy=0;" edge="1" parent="1" source="qd9NMynXkZUl9tCBYxDR-40" target="qd9NMynXkZUl9tCBYxDR-7">
          <mxGeometry relative="1" as="geometry" />
        </mxCell>
        <mxCell id="qd9NMynXkZUl9tCBYxDR-40" value="continente" style="text;html=1;align=center;verticalAlign=middle;resizable=0;points=[];autosize=1;strokeColor=none;fillColor=none;" vertex="1" parent="1">
          <mxGeometry x="750" y="260" width="80" height="30" as="geometry" />
        </mxCell>
        <mxCell id="qd9NMynXkZUl9tCBYxDR-65" style="edgeStyle=orthogonalEdgeStyle;rounded=0;orthogonalLoop=1;jettySize=auto;html=1;" edge="1" parent="1" source="qd9NMynXkZUl9tCBYxDR-41" target="qd9NMynXkZUl9tCBYxDR-23">
          <mxGeometry relative="1" as="geometry" />
        </mxCell>
        <mxCell id="qd9NMynXkZUl9tCBYxDR-41" value="nombre_vulgar" style="text;html=1;align=center;verticalAlign=middle;resizable=0;points=[];autosize=1;strokeColor=none;fillColor=none;" vertex="1" parent="1">
          <mxGeometry x="440" y="468" width="100" height="30" as="geometry" />
        </mxCell>
        <mxCell id="qd9NMynXkZUl9tCBYxDR-66" style="edgeStyle=orthogonalEdgeStyle;rounded=0;orthogonalLoop=1;jettySize=auto;html=1;entryX=0.083;entryY=1;entryDx=0;entryDy=0;entryPerimeter=0;" edge="1" parent="1" source="qd9NMynXkZUl9tCBYxDR-43" target="qd9NMynXkZUl9tCBYxDR-23">
          <mxGeometry relative="1" as="geometry" />
        </mxCell>
        <mxCell id="qd9NMynXkZUl9tCBYxDR-43" value="nombre_científico" style="text;html=1;align=center;verticalAlign=middle;resizable=0;points=[];autosize=1;strokeColor=none;fillColor=none;" vertex="1" parent="1">
          <mxGeometry x="450" y="535" width="120" height="30" as="geometry" />
        </mxCell>
        <mxCell id="qd9NMynXkZUl9tCBYxDR-67" style="edgeStyle=orthogonalEdgeStyle;rounded=0;orthogonalLoop=1;jettySize=auto;html=1;entryX=0.75;entryY=1;entryDx=0;entryDy=0;" edge="1" parent="1" source="qd9NMynXkZUl9tCBYxDR-44" target="qd9NMynXkZUl9tCBYxDR-23">
          <mxGeometry relative="1" as="geometry" />
        </mxCell>
        <mxCell id="qd9NMynXkZUl9tCBYxDR-44" value="familia" style="text;html=1;align=center;verticalAlign=middle;resizable=0;points=[];autosize=1;strokeColor=none;fillColor=none;" vertex="1" parent="1">
          <mxGeometry x="610" y="550" width="60" height="30" as="geometry" />
        </mxCell>
        <mxCell id="qd9NMynXkZUl9tCBYxDR-68" style="edgeStyle=orthogonalEdgeStyle;rounded=0;orthogonalLoop=1;jettySize=auto;html=1;entryX=1;entryY=0.75;entryDx=0;entryDy=0;" edge="1" parent="1" source="qd9NMynXkZUl9tCBYxDR-45" target="qd9NMynXkZUl9tCBYxDR-23">
          <mxGeometry relative="1" as="geometry" />
        </mxCell>
        <mxCell id="qd9NMynXkZUl9tCBYxDR-45" value="extinción" style="text;html=1;align=center;verticalAlign=middle;resizable=0;points=[];autosize=1;strokeColor=none;fillColor=none;" vertex="1" parent="1">
          <mxGeometry x="740" y="535" width="70" height="30" as="geometry" />
        </mxCell>
        <mxCell id="qd9NMynXkZUl9tCBYxDR-70" style="edgeStyle=orthogonalEdgeStyle;rounded=0;orthogonalLoop=1;jettySize=auto;html=1;entryX=0.25;entryY=1;entryDx=0;entryDy=0;" edge="1" parent="1" source="qd9NMynXkZUl9tCBYxDR-69" target="qd9NMynXkZUl9tCBYxDR-6">
          <mxGeometry relative="1" as="geometry" />
        </mxCell>
        <mxCell id="qd9NMynXkZUl9tCBYxDR-69" value="&lt;b&gt;&lt;u&gt;id_zoo&lt;/u&gt;&lt;/b&gt;" style="text;html=1;align=center;verticalAlign=middle;resizable=0;points=[];autosize=1;strokeColor=none;fillColor=none;" vertex="1" parent="1">
          <mxGeometry x="10" y="260" width="60" height="30" as="geometry" />
        </mxCell>
      </root>
    </mxGraphModel>
  </diagram>
</mxfile>
